<svg width="420" height="120" viewBox="0 0 420 120" fill="none" xmlns="http://www.w3.org/2000/svg">
  <rect width="420" height="120" fill="#071B38"/>
  <rect x="12" y="20" width="86" height="78" rx="18" fill="#F2F2EF"/>
  <path d="M24 33H50.5C61.8218 33 71 42.1782 71 53.5C71 60.5771 67.3941 66.812 61.9194 70.5C68.0128 73.4858 72 79.7494 72 87C72 96.3888 64.3888 104 55 104H24V33ZM38.5 46V64.5H50.5C56.299 64.5 61 59.799 61 54C61 49.5817 57.4183 46 53 46H38.5ZM38.5 76V91H53C57.4183 91 61 87.4183 61 83C61 79.134 57.866 76 54 76H38.5Z" fill="#0A4B5C"/>
  <path d="M52 101L74 72L85 33H97L75 63L93 101H79L67 76L59 86L63 101H52Z" fill="#0A4B5C"/>
  <path d="M18 83L27 74L37 84.5L53 65L59 69.5L38 94L18 83Z" fill="#7A7D81"/>
  <text x="35" y="100" fill="#7A7D81" font-family="Arial, Helvetica, sans-serif" font-size="12" font-weight="700">APPROVED</text>
  <text x="115" y="52" fill="#F4F6F8" font-family="Arial, Helvetica, sans-serif" font-size="25" font-weight="700">Plano Petrobras</text>
  <text x="115" y="84" fill="#D8E0EA" font-family="Arial, Helvetica, sans-serif" font-size="22" font-weight="400">Instrumentação</text>
</svg>
